<svg width="10" height="10" viewBox="0 0 10 10" fill="none" xmlns="http://www.w3.org/2000/svg">
<path d="M8.75 4.4375H7.95312V1.8125C7.95312 0.983984 7.28164 0.3125 6.45312 0.3125H3.54688C2.71836 0.3125 2.04688 0.983984 2.04688 1.8125V4.4375H1.25C1.04258 4.4375 0.875 4.60508 0.875 4.8125V9.3125C0.875 9.51992 1.04258 9.6875 1.25 9.6875H8.75C8.95742 9.6875 9.125 9.51992 9.125 9.3125V4.8125C9.125 4.60508 8.95742 4.4375 8.75 4.4375ZM5.32812 7.21484V7.83594C5.32812 7.8875 5.28594 7.92969 5.23438 7.92969H4.76562C4.71406 7.92969 4.67188 7.8875 4.67188 7.83594V7.21484C4.57514 7.14539 4.50294 7.04704 4.46566 6.93394C4.42838 6.82084 4.42795 6.69883 4.46443 6.58547C4.50091 6.47211 4.57242 6.37325 4.66866 6.30312C4.7649 6.23299 4.88092 6.1952 5 6.1952C5.11908 6.1952 5.2351 6.23299 5.33134 6.30312C5.42758 6.37325 5.49909 6.47211 5.53557 6.58547C5.57205 6.69883 5.57162 6.82084 5.53434 6.93394C5.49706 7.04704 5.42486 7.14539 5.32812 7.21484ZM7.10938 4.4375H2.89062V1.8125C2.89062 1.45039 3.18477 1.15625 3.54688 1.15625H6.45312C6.81523 1.15625 7.10938 1.45039 7.10938 1.8125V4.4375Z" fill="#262626"/>
</svg>
