<svg width="16" height="16" viewBox="0 0 16 16" fill="none" xmlns="http://www.w3.org/2000/svg">
<g clip-path="url(#clip0_1449_2202)">
<g clip-path="url(#clip1_1449_2202)">
<path fill-rule="evenodd" clip-rule="evenodd" d="M8 16C12.4183 16 16 12.4183 16 8C16 3.58172 12.4183 0 8 0C3.58172 0 0 3.58172 0 8C0 12.4183 3.58172 16 8 16ZM7.99988 14.0503C11.3414 14.0503 14.0503 11.3415 14.0503 7.9999C14.0503 4.65835 11.3414 1.94948 7.99988 1.94948C4.65833 1.94948 1.94946 4.65835 1.94946 7.9999C1.94946 11.3415 4.65833 14.0503 7.99988 14.0503ZM7.99988 14.7226C11.7127 14.7226 14.7226 11.7127 14.7226 7.9999C14.7226 4.28707 11.7127 1.27722 7.99988 1.27722C4.28704 1.27722 1.27719 4.28707 1.27719 7.9999C1.27719 11.7127 4.28704 14.7226 7.99988 14.7226ZM8.20774 4.52269L9.16391 6.46011C9.19361 6.52028 9.25101 6.56198 9.31741 6.57163L11.4555 6.88231C11.6227 6.90661 11.6895 7.11209 11.5685 7.23003L10.0981 8.6633C10.002 8.75696 9.95814 8.89192 9.98082 9.02418L10.3279 11.048C10.3565 11.2145 10.1817 11.3415 10.0321 11.2629L8.1198 10.2575C8.06041 10.2263 7.98946 10.2263 7.93007 10.2575L6.01772 11.2629C5.86816 11.3415 5.69337 11.2145 5.72193 11.048L6.08716 8.91855C6.0985 8.85242 6.07657 8.78494 6.02853 8.7381L4.4814 7.23003C4.36041 7.11209 4.42717 6.90661 4.59438 6.88231L6.73246 6.57163C6.79886 6.56198 6.85626 6.52028 6.88595 6.46011L7.84213 4.52269C7.9169 4.37117 8.13296 4.37117 8.20774 4.52269Z" fill="#FFD60A"/>
</g>
</g>
<defs>
<clipPath id="clip0_1449_2202">
<rect width="16" height="16" fill="white"/>
</clipPath>
<clipPath id="clip1_1449_2202">
<rect width="16" height="16" fill="white"/>
</clipPath>
</defs>
</svg>
